# xmcd CD database file
#
# Track frame offsets:
#	150
#	38892
#	75398
#	110944
#	151371
#	185848
#	215586
#
# Disc length: 3328 seconds
#
# Revision: 0
# Processed by: cddbd v1.5.2PL0 Copyright (c) Steve Scherf et al.
# Submitted via: CDex 1.70beta2
#
DISCID=5f0cfe07
DTITLE=David Newman - Lotus Feet
DYEAR=2005
DGENRE=New Age
TTITLE0=Lotus Feet
TTITLE1=Bajarang Bali
TTITLE2=Shiva Bolo
TTITLE3=Bhadra kali
TTITLE4=Shri Krishna Sharanam
TTITLE5=Sita Ram
TTITLE6=Thank You
EXTD=YEAR: 2005
EXTT0=
EXTT1=
EXTT2=
EXTT3=
EXTT4=
EXTT5=
EXTT6=
PLAYORDER=
